<svg width="86" height="98" viewBox="0 0 86 98" fill="none" xmlns="http://www.w3.org/2000/svg">
<path fill-rule="evenodd" clip-rule="evenodd" d="M11.3707 12.9234C19.0411 4.74168 30.1096 0 43.5862 0C65.8628 0 80.8549 12.942 85.578 30.9139C86.0477 32.7028 85.7875 34.6051 84.8547 36.2023C83.9219 37.7994 82.3928 38.9606 80.6039 39.4303C78.8149 39.9 76.9126 39.6399 75.3155 38.707C73.7183 37.7742 72.5572 36.2451 72.0874 34.4562C68.9867 22.6392 59.5499 13.9461 43.5909 13.9461C33.5311 13.9461 26.2977 17.3954 21.5467 22.4625C16.7307 27.604 13.9461 34.9582 13.9461 43.5816V54.0412C13.9461 62.6645 16.726 70.0187 21.5421 75.1602C26.2931 80.2273 33.5264 83.6766 43.5816 83.6766C50.9079 83.6766 56.5747 81.9799 60.8469 79.3533C65.1237 76.7129 67.448 73.3798 68.0988 69.7398C68.9031 65.2213 67.8943 62.3995 66.4067 60.4378C66.2369 60.2128 66.057 59.9956 65.8675 59.787C65.2149 62.0562 64.2396 64.2198 62.9713 66.2115C55.9332 76.9035 42.6611 77.6473 34.1354 74.2444C29.0637 72.2222 24.9682 66.8855 23.6898 61.2838C22.8947 57.9575 23.1679 54.4652 24.4708 51.3031C25.9212 47.8166 28.5802 44.9344 32.1969 42.8053C35.9159 40.6111 41.155 39.7139 46.0454 39.579C47.9905 39.5301 49.9368 39.5922 51.8749 39.765C51.4565 38.8353 51.0056 38.1705 50.6011 37.7893C48.816 36.1297 45.6735 34.8513 42.4845 34.8699C39.4768 34.8932 37.25 36.0181 35.9298 38.124C35.4445 38.9005 34.811 39.5739 34.0654 40.1055C33.3199 40.6372 32.4769 41.0169 31.5846 41.2228C30.6924 41.4287 29.7683 41.4568 28.8651 41.3056C27.962 41.1544 27.0975 40.8268 26.3209 40.3414C25.5444 39.8561 24.8711 39.2226 24.3394 38.477C23.8077 37.7315 23.4281 36.8885 23.2222 35.9963C23.0163 35.104 22.9881 34.1799 23.1393 33.2768C23.2906 32.3736 23.6182 31.5091 24.1035 30.7326C28.5105 23.6898 35.7578 20.9703 42.3869 20.9238C48.8393 20.8773 55.5009 23.3039 60.0984 27.5807C64.5333 31.7088 66.4811 38.0589 67.1319 43.7815C71.0182 45.6549 74.7093 48.3093 77.5171 52.0097C81.5801 57.3557 83.249 64.2079 81.8265 72.185C80.3389 80.5202 75.0858 86.9586 68.1593 91.2261C61.3861 95.4007 53.1021 97.6227 43.5816 97.6227C30.105 97.6227 19.0364 92.8811 11.3661 84.6993C3.7608 76.5827 0 65.6397 0 54.0412V43.5816C0 31.9877 3.76545 21.0354 11.3661 12.928L11.3707 12.9234ZM52.9627 53.9389C50.802 53.6078 48.6164 53.4678 46.4312 53.5205C42.4334 53.6321 39.9974 54.3945 39.2862 54.8175C37.8683 55.6543 37.4732 56.3655 37.3477 56.6677C37.1707 57.1563 37.1528 57.6884 37.2965 58.1878C37.4639 58.9316 37.859 59.7358 38.4029 60.4192C38.6526 60.7562 38.9576 61.0485 39.3048 61.2838C39.3296 61.3024 39.3296 61.3055 39.3048 61.2931C43.8837 63.1201 49.0903 61.944 51.3263 58.5411C51.9632 57.5788 52.5582 55.9704 52.9627 53.9389Z" fill="black"/>
</svg>
