<svg width="137" height="137" viewBox="0 0 137 137" fill="none" xmlns="http://www.w3.org/2000/svg">
<path d="M94.7584 33.2225C90.8572 28.7673 88.7069 23.0468 88.7075 17.125H71.0688V87.9083C70.9356 91.7397 69.3193 95.3696 66.561 98.0321C63.8026 100.695 60.1179 102.181 56.2842 102.179C48.1784 102.179 41.4425 95.5575 41.4425 87.3375C41.4425 77.5192 50.9184 70.1554 60.6796 73.1808V55.1425C40.9859 52.5167 23.7467 67.815 23.7467 87.3375C23.7467 106.346 39.5017 119.875 56.2271 119.875C74.1513 119.875 88.7075 105.319 88.7075 87.3375V51.4321C95.8601 56.5687 104.447 59.3247 113.253 59.3096V41.6708C113.253 41.6708 102.522 42.1846 94.7584 33.2225Z" fill="black"/>
</svg>
