<svg width="102" height="84" viewBox="0 0 102 84" fill="none" xmlns="http://www.w3.org/2000/svg">
<path d="M78.8182 0C81.8625 0 84.8769 0.603535 87.6895 1.77614C90.502 2.94875 93.0576 4.66747 95.2102 6.83418C97.3628 9.00088 99.0704 11.5731 100.235 14.4041C101.4 17.235 102 20.2692 102 23.3333V60.6667C102 63.7308 101.4 66.765 100.235 69.5959C99.0704 72.4269 97.3628 74.9991 95.2102 77.1658C93.0576 79.3325 90.502 81.0512 87.6895 82.2239C84.8769 83.3965 81.8625 84 78.8182 84H23.1818C20.1375 84 17.1231 83.3965 14.3105 82.2239C11.498 81.0512 8.94243 79.3325 6.7898 77.1658C2.44236 72.79 0 66.855 0 60.6667V23.3333C0 17.1449 2.44236 11.21 6.7898 6.83418C11.1372 2.45833 17.0336 0 23.1818 0H78.8182ZM37.0909 28V56C37.0916 56.8253 37.3096 57.6356 37.7229 58.3484C38.1362 59.0612 38.7298 59.6509 39.4434 60.0575C40.1569 60.464 40.9648 60.6728 41.7847 60.6626C42.6045 60.6524 43.407 60.4235 44.1104 59.9993L67.2922 45.9993C67.9777 45.5844 68.5449 44.9981 68.9386 44.2973C69.3324 43.5965 69.5394 42.8051 69.5394 42C69.5394 41.1949 69.3324 40.4035 68.9386 39.7027C68.5449 39.0019 67.9777 38.4156 67.2922 38.0007L44.1104 24.0007C43.407 23.5765 42.6045 23.3476 41.7847 23.3374C40.9648 23.3272 40.1569 23.536 39.4434 23.9425C38.7298 24.3491 38.1362 24.9388 37.7229 25.6516C37.3096 26.3644 37.0916 27.1747 37.0909 28Z" fill="black"/>
</svg>
