<svg width="80" height="80" viewBox="0 0 80 80" fill="none" xmlns="http://www.w3.org/2000/svg">
<path fill-rule="evenodd" clip-rule="evenodd" d="M35.5424 6.65512C33.6148 7.45227 31.2949 8.6667 27.9844 10.404L27.0101 10.9153L58.6373 27.5612L71.0306 21.3646C70.3644 20.7099 69.5393 20.0587 68.4893 19.3575C66.3609 17.9361 63.5122 16.4371 59.4575 14.3093L52.0156 10.404C48.7051 8.66671 46.3851 7.45227 44.4576 6.65512C42.5815 5.87923 41.2635 5.5814 40 5.5814C38.7365 5.5814 37.4185 5.87923 35.5424 6.65512ZM73.7202 26.26L61.3954 32.4224V43.7209C61.3954 45.2622 60.1459 46.5116 58.6047 46.5116C57.0634 46.5116 55.814 45.2622 55.814 43.7209V35.2131L42.7907 41.7247V73.9552C43.2991 73.798 43.8489 73.5965 44.4576 73.3448C46.3851 72.5476 48.705 71.3332 52.0156 69.5959L59.4574 65.6908C63.5122 63.5628 66.3609 62.0639 68.4893 60.6425C70.559 59.2603 71.7549 58.0728 72.5817 56.6688C73.4131 55.2568 73.8986 53.5792 74.1542 50.9851C74.4155 48.3327 74.4186 44.9696 74.4186 40.2177V39.7823C74.4186 35.0303 74.4155 31.6673 74.1542 29.015C74.0502 27.9595 73.9082 27.0558 73.7202 26.26ZM37.2093 73.9552V41.7247L6.27975 26.26C6.09183 27.0558 5.94979 27.9595 5.84581 29.015C5.58452 31.6673 5.5814 35.0303 5.5814 39.7823V40.2177C5.5814 44.9696 5.58452 48.3327 5.84581 50.9851C6.10137 53.5792 6.58687 55.2568 7.41832 56.6688C8.24507 58.0728 9.44095 59.2603 11.5107 60.6425C13.6392 62.0639 16.4878 63.5628 20.5425 65.6907C20.5425 65.6908 20.5425 65.6908 20.5426 65.6908L27.9843 69.5958C31.2949 71.3332 33.6149 72.5476 35.5424 73.3448C36.151 73.5965 36.7009 73.798 37.2093 73.9552ZM8.96943 21.3646L40 36.8799L52.4918 30.634L21.9561 14.5626C21.6594 14.4064 21.4025 14.2044 21.1894 13.9698L20.5425 14.3093C16.4878 16.4371 13.6392 17.9361 11.5108 19.3575C10.4607 20.0587 9.63556 20.7099 8.96943 21.3646ZM33.4093 1.49739C35.6779 0.559207 37.7498 0 40 0C42.2502 0 44.3221 0.559207 46.5907 1.49739C48.7811 2.40329 51.3252 3.73842 54.4932 5.40094L62.1857 9.43776C66.0743 11.4784 69.1862 13.1114 71.589 14.7159C74.078 16.3782 75.9951 18.1284 77.3912 20.4993C78.7826 22.8622 79.4085 25.4208 79.7087 28.4678C80.0001 31.4254 80 35.0629 80 39.6375V40.3625C80 44.9371 80.0001 48.5746 79.7087 51.5322C79.4085 54.5793 78.7826 57.138 77.3912 59.5009C75.9951 61.8717 74.078 63.6219 71.5889 65.2841C69.1869 66.8882 66.076 68.5207 62.1889 70.5606L62.0511 70.6329L54.6092 74.5381L54.4919 74.5996C51.3245 76.2618 48.7808 77.5967 46.5907 78.5025C44.3222 79.4407 42.2502 80 40 80C37.7498 80 35.6778 79.4407 33.4093 78.5025C31.2192 77.5968 28.6756 76.2619 25.5084 74.5998L25.3909 74.5381L17.8104 70.5602C13.9236 68.5205 10.813 66.8881 8.41109 65.2841C5.92205 63.6219 4.00493 61.8718 2.60884 59.5009C1.21741 57.138 0.591471 54.5793 0.291305 51.5322C-5.70342e-05 48.5746 -3.12703e-05 44.937 6.66687e-07 40.3625V39.6375C-3.12703e-05 35.0629 -5.70342e-05 31.4254 0.291306 28.4678C0.591475 25.4208 1.21742 22.8622 2.60883 20.4993C4.0049 18.1284 5.922 16.3782 8.41106 14.7159C10.8136 13.1115 13.9252 11.4786 17.8134 9.43826L25.5068 5.40092C28.6748 3.73841 31.2189 2.40328 33.4093 1.49739Z" fill="white"/>
</svg>
