<svg width="92" height="80" viewBox="0 0 92 80" fill="none" xmlns="http://www.w3.org/2000/svg">
<path d="M90.1531 36.059L76.8085 21.0447C76.0836 20.2279 75.1931 19.5749 74.1964 19.1293C73.1997 18.6837 72.1195 18.4556 71.0278 18.4602H58.7286V7.69177C58.7287 5.6624 57.9273 3.71524 56.499 2.27451C55.0706 0.833777 53.1312 0.0162349 51.1031 0H7.687C5.64828 0 3.69306 0.81038 2.25147 2.25287C0.809878 3.69535 0 5.65178 0 7.69177V59.9958C0 62.0358 0.809878 63.9922 2.25147 65.4347C3.69306 66.8772 5.64828 67.6876 7.687 67.6876H9.71636C9.82877 71.0554 11.2703 74.2415 13.7253 76.5481C16.1804 78.8547 19.4488 80.0939 22.815 79.9944C26.1872 80.0942 29.4623 78.8569 31.9271 76.5519C34.3919 74.2469 35.8469 71.0609 35.9751 67.6876H58.3597C58.4721 71.0554 59.9136 74.2415 62.3687 76.5481C64.8237 78.8547 68.0921 80.0939 71.4583 79.9944C74.8305 80.0942 78.1056 78.8569 80.5704 76.5519C83.0352 74.2469 84.4902 71.0609 84.6185 67.6876C86.5983 67.5932 88.4667 66.7432 89.8393 65.3125C91.212 63.8817 91.9845 61.9791 91.998 59.9958V41.1663C92.0415 39.2932 91.3835 37.4714 90.1531 36.059ZM22.815 72.3026C21.4866 72.4047 20.1719 71.9766 19.1579 71.1119C18.144 70.2472 17.5132 69.0161 17.4034 67.6876C17.5132 66.359 18.144 65.1279 19.1579 64.2632C20.1719 63.3985 21.4866 62.9704 22.815 63.0725C24.1499 62.9698 25.4717 63.396 26.4954 64.2593C27.5192 65.1226 28.163 66.3538 28.2881 67.6876C28.163 69.0214 27.5192 70.2526 26.4954 71.1158C25.4717 71.9791 24.1499 72.4053 22.815 72.3026ZM51.1031 25.6597V59.9958H33.0848C31.8125 58.5243 30.2341 57.3487 28.4601 56.5516C26.6861 55.7544 24.7595 55.3548 22.815 55.3807C20.8808 55.3638 18.9661 55.7677 17.2035 56.5646C15.4408 57.3615 13.8723 58.5322 12.6067 59.9958H7.687V7.69177H51.1031V25.6597ZM58.7901 26.152H71.0893L79.9448 36.1821H58.7901V26.152ZM71.5813 72.3026C70.253 72.4047 68.9382 71.9766 67.9242 71.1119C66.9103 70.2472 66.2795 69.0161 66.1697 67.6876C66.2795 66.359 66.9103 65.1279 67.9242 64.2632C68.9382 63.3985 70.253 62.9704 71.5813 63.0725C72.9162 62.9698 74.238 63.396 75.2617 64.2593C76.2855 65.1226 76.9293 66.3538 77.0544 67.6876C76.9293 69.0214 76.2855 70.2526 75.2617 71.1158C74.238 71.9791 72.9162 72.4053 71.5813 72.3026ZM71.5813 55.3807C69.6472 55.3638 67.7324 55.7677 65.9698 56.5646C64.2071 57.3615 62.6386 58.5322 61.373 59.9958H58.7901V43.8123H84.434V59.9958H81.8511C80.5788 58.5243 79.0004 57.3487 77.2264 56.5516C75.4524 55.7544 73.5258 55.3548 71.5813 55.3807Z" fill="white"/>
</svg>
