<svg width="328" height="94" viewBox="0 0 328 94" fill="none" xmlns="http://www.w3.org/2000/svg">
<path d="M0.408158 15.0488H18.1118L42.8615 63.3528L67.6112 15.0488H85.3149V93.5016H67.6112V51.8156L48.5642 87.8978H37.2475L18.0865 51.8156V93.5016H0.382812V15.0488H0.408158Z" fill="black"/>
<path d="M178.013 15H195.374L226.967 63.1899V15H245.444V93.4528H228.082L196.489 45.2629V93.4528H178V15H178.013Z" fill="black"/>
<path d="M280.448 15.0488H295.795L274.403 93.5016H255.027L280.461 15.0488H280.448ZM286.278 15.0488H301.624L327.058 93.5016H307.682L286.29 15.0488H286.278Z" fill="black"/>
<path d="M132.47 15.0488C110.812 15.0488 93.2607 32.6082 93.2607 54.2752C93.2607 75.9423 110.812 93.5016 132.47 93.5016C154.127 93.5016 171.679 75.9423 171.679 54.2752C171.679 32.6082 154.127 15.0488 132.47 15.0488ZM132.47 75.7901C120.596 75.7901 110.964 66.1547 110.964 54.2752C110.964 42.3957 120.596 32.7603 132.47 32.7603C144.344 32.7603 153.975 42.3957 153.975 54.2752C153.975 66.1547 144.344 75.7901 132.47 75.7901Z" fill="#A24936"/>
<path d="M43.9386 48.6588L61.3001 16.8745C61.7436 16.0504 61.1607 15.0488 60.2229 15.0488H25.4999C24.5621 15.0488 23.9665 16.0504 24.4227 16.8745L41.7842 48.6588C42.2531 49.5209 43.4824 49.5209 43.9512 48.6588H43.9386Z" fill="#A24936"/>
<path d="M290.118 57.7368L281.006 92.3103C280.854 92.9062 281.298 93.4894 281.919 93.4894H300.142C300.763 93.4894 301.206 92.9062 301.054 92.3103L291.943 57.7368C291.689 56.7987 290.359 56.7987 290.118 57.7368Z" fill="#A24936"/>
<path d="M132.47 63.1246C137.355 63.1246 141.316 59.1626 141.316 54.2752C141.316 49.3878 137.355 45.4258 132.47 45.4258C127.585 45.4258 123.625 49.3878 123.625 54.2752C123.625 59.1626 127.585 63.1246 132.47 63.1246Z" fill="#A24936"/>
<path d="M303.867 0.9375H276.482C274.942 0.9375 273.694 2.18627 273.694 3.72671V7.31464C273.694 8.85507 274.942 10.1038 276.482 10.1038H303.867C305.407 10.1038 306.655 8.85507 306.655 7.31464V3.72671C306.655 2.18627 305.407 0.9375 303.867 0.9375Z" fill="black"/>
</svg>
