<svg width="78" height="59" viewBox="0 0 78 59" fill="none" xmlns="http://www.w3.org/2000/svg">
<path fill-rule="evenodd" clip-rule="evenodd" d="M11.7 7.86667C9.54609 7.86667 7.8 9.62768 7.8 11.8V47.2C7.8 49.3723 9.54609 51.1333 11.7 51.1333H66.3C68.4539 51.1333 70.2 49.3723 70.2 47.2V11.8C70.2 9.62768 68.4539 7.86667 66.3 7.86667H11.7ZM0 11.8C0 5.28304 5.23827 0 11.7 0H66.3C72.7617 0 78 5.28304 78 11.8V47.2C78 53.717 72.7617 59 66.3 59H11.7C5.23827 59 0 53.717 0 47.2V11.8Z" fill="white"/>
<path fill-rule="evenodd" clip-rule="evenodd" d="M0 20C0 17.7909 1.74494 16 3.89744 16H72.1026C74.2551 16 76 17.7909 76 20C76 22.2091 74.2551 24 72.1026 24H3.89744C1.74494 24 0 22.2091 0 20Z" fill="white"/>
<path fill-rule="evenodd" clip-rule="evenodd" d="M16 39C16 36.7909 17.6789 35 19.75 35H27.25C29.3211 35 31 36.7909 31 39C31 41.2091 29.3211 43 27.25 43H19.75C17.6789 43 16 41.2091 16 39Z" fill="white"/>
</svg>
