<svg width="87" height="87" viewBox="0 0 87 87" fill="none" xmlns="http://www.w3.org/2000/svg">
<path fill-rule="evenodd" clip-rule="evenodd" d="M0 0H79.75V32.6464H72.4966V7.25475H7.25345V50.7453H32.6405V58H0V0Z" fill="white"/>
<path fill-rule="evenodd" clip-rule="evenodd" d="M58 65.25V47.2593H65.25V65.25H58Z" fill="white"/>
<path fill-rule="evenodd" clip-rule="evenodd" d="M58 75.9907V68.7407H65.25V75.9907H58Z" fill="white"/>
<path fill-rule="evenodd" clip-rule="evenodd" d="M61.625 43.5C51.6148 43.5 43.5 51.6148 43.5 61.625C43.5 71.6352 51.6148 79.75 61.625 79.75C71.6352 79.75 79.75 71.6352 79.75 61.625C79.75 51.6148 71.6352 43.5 61.625 43.5ZM36.25 61.625C36.25 47.6108 47.6108 36.25 61.625 36.25C75.6392 36.25 87 47.6108 87 61.625C87 75.6392 75.6392 87 61.625 87C47.6108 87 36.25 75.6392 36.25 61.625Z" fill="white"/>
<path fill-rule="evenodd" clip-rule="evenodd" d="M78.4076 6.47383L39.8557 37.3241L1.34277 6.47267L5.87896 0.806762L39.8581 28.0263L73.8743 0.805603L78.4076 6.47383Z" fill="white"/>
</svg>
