<svg width="68" height="68" viewBox="0 0 68 68" fill="none" xmlns="http://www.w3.org/2000/svg">
<path fill-rule="evenodd" clip-rule="evenodd" d="M0 34.1176C0 15.275 15.2223 0 34 0C52.7777 0 68 15.275 68 34.1176V47.7647C68 53.4175 63.4333 58 57.8 58C52.1667 58 47.6 53.4175 47.6 47.7647V40.9412C47.6 35.2884 52.1667 30.7059 57.8 30.7059H60.9896C59.3164 17.242 47.8707 6.82353 34 6.82353C20.1293 6.82353 8.68357 17.242 7.01044 30.7059H10.2C15.8333 30.7059 20.4 35.2884 20.4 40.9412V47.7647C20.4 53.4175 15.8333 58 10.2 58C4.5667 58 0 53.4175 0 47.7647V34.1176ZM6.8 37.5294V47.7647C6.8 49.649 8.32223 51.1765 10.2 51.1765C12.0778 51.1765 13.6 49.649 13.6 47.7647V40.9412C13.6 39.0569 12.0778 37.5294 10.2 37.5294H6.8ZM61.2 37.5294H57.8C55.9222 37.5294 54.4 39.0569 54.4 40.9412V47.7647C54.4 49.649 55.9222 51.1765 57.8 51.1765C59.6778 51.1765 61.2 49.649 61.2 47.7647V37.5294Z" fill="white"/>
<path fill-rule="evenodd" clip-rule="evenodd" d="M64.5556 37C66.4579 37 68 38.5421 68 40.4444V54.2222C68 57.9406 67.4 61.3317 65.6993 63.8829C63.8342 66.6805 60.9663 68 57.6667 68H40.4444C38.5421 68 37 66.4579 37 64.5556C37 62.6532 38.5421 61.1111 40.4444 61.1111H57.6667C58.9596 61.1111 59.5361 60.7084 59.9674 60.0616C60.5629 59.1683 61.1111 57.3927 61.1111 54.2222V40.4444C61.1111 38.5421 62.6532 37 64.5556 37Z" fill="white"/>
</svg>
